<?xml version="1.0" encoding="UTF-8"?>
<svg id="Layer_1" xmlns="http://www.w3.org/2000/svg" version="1.1" xmlns:xlink="http://www.w3.org/1999/xlink" viewBox="0 0 376.4 176.4">
  <!-- Generator: Adobe Illustrator 29.5.0, SVG Export Plug-In . SVG Version: 2.1.0 Build 137)  -->
  <defs>
    <style>
      .st0 {
        fill: url(#linear-gradient2);
      }

      .st1 {
        fill: url(#linear-gradient1);
      }

      .st2 {
        fill: none;
      }

      .st3 {
        fill: url(#radial-gradient);
      }

      .st4 {
        fill: url(#linear-gradient3);
      }

      .st5 {
        fill: url(#linear-gradient);
      }

      .st6 {
        clip-path: url(#clippath);
      }
    </style>
    <linearGradient id="linear-gradient" x1="71.9" y1="90.9" x2="86" y2="90.9" gradientUnits="userSpaceOnUse">
      <stop offset="0" stop-color="#fc0a80"/>
      <stop offset="1" stop-color="#ff5121"/>
    </linearGradient>
    <linearGradient id="linear-gradient1" x1="31.3" y1="89.8" x2="64.6" y2="89.8" xlink:href="#linear-gradient"/>
    <linearGradient id="linear-gradient2" x1="95.4" y1="101.7" x2="147.2" y2="101.7" xlink:href="#linear-gradient"/>
    <clipPath id="clippath">
      <path class="st2" d="M121.3,75.4c-7.4,0-13.6,2.5-18.5,7.4-4.9,4.9-7.4,11.3-7.4,18.8s2.5,13.9,7.4,18.8c4.9,4.9,11.1,7.4,18.5,7.4s13.6-2.5,18.5-7.4c4.9-4.9,7.4-11.3,7.4-18.8s-2.5-13.9-7.4-18.8c-4.9-4.9-11.1-7.4-18.5-7.4ZM129.7,111.5c-2.5,2.6-5.7,3.7-9.4,3.5s-5.4-1.5-7.4-3.5h0c-2.3-2.3-3.5-5.6-3.5-9.8,0-6.2,2.6-10.5,7.7-12.5,1.3-.5,2.6-.8,4-.8,3.3,0,6.2,1.1,8.5,3.5,2.3,2.3,3.5,5.6,3.5,9.8s-1.2,7.5-3.5,9.8Z"/>
    </clipPath>
    <radialGradient id="radial-gradient" cx="115" cy="85.4" fx="115" fy="85.4" r="22.1" gradientUnits="userSpaceOnUse">
      <stop offset="0" stop-color="#c65121"/>
      <stop offset="1" stop-color="#fc0a80" stop-opacity="0"/>
    </radialGradient>
    <linearGradient id="linear-gradient3" x1="-368.7" y1="545.2" x2="-48" y2="545.2" gradientTransform="translate(550.1 -265.4) rotate(43.2)" xlink:href="#linear-gradient"/>
  </defs>
  <g>
    <polygon class="st5" points="71.9 126.4 86 126.4 86 60.7 71.9 55.4 71.9 126.4"/>
    <path class="st1" d="M62,76.8h-8.3v-4.8c0-2.3.6-3.9,1.9-4.8,1.3-.9,2.8-1.4,4.4-1.4s2.8,0,4,.3h.6c0,.1,0-11.7,0-11.7h-.3c-1.5-.8-3.7-1.2-6.7-1.2-5.5,0-10,1.7-13.2,5.1-3.3,3.4-4.9,7.9-4.9,13.5v5h-8.1v12.2h8.1v37.3h14.2v-37.3h8.3v-12.2Z"/>
    <path class="st0" d="M121.3,75.4c-7.4,0-13.6,2.5-18.5,7.4-4.9,4.9-7.4,11.3-7.4,18.8s2.5,13.9,7.4,18.8c4.9,4.9,11.1,7.4,18.5,7.4s13.6-2.5,18.5-7.4c4.9-4.9,7.4-11.3,7.4-18.8s-2.5-13.9-7.4-18.8c-4.9-4.9-11.1-7.4-18.5-7.4ZM129.7,111.5c-2.5,2.6-5.7,3.7-9.4,3.5s-5.4-1.5-7.4-3.5h0c-2.3-2.3-3.5-5.6-3.5-9.8,0-6.2,2.6-10.5,7.7-12.5,1.3-.5,2.6-.8,4-.8,3.3,0,6.2,1.1,8.5,3.5,2.3,2.3,3.5,5.6,3.5,9.8s-1.2,7.5-3.5,9.8Z"/>
    <polygon points="207.5 107 197.5 76.9 183 76.9 172.8 106.9 164.2 76.9 149.3 76.9 165 126.1 165.1 126.4 179.2 126.4 189.9 94.3 200.9 126.4 214.8 126.4 230.3 76.9 216.2 76.9 207.5 107"/>
    <path d="M256.7,75.4c-6.5,0-12.3,2.5-17.1,7.3-4.8,4.8-7.2,11.1-7.2,18.7s2.5,14.5,7.4,19.2c4.9,4.8,11,7.2,18.1,7.2s10.7-1.5,14.6-4.4c3.9-2.9,6.6-6.7,7.9-11.3v-.5c.1,0-1-.3-1-.3-4.8-1.4-10.2-.5-14.8,2.6-1.7,1.2-4,1.8-6.7,1.8s-5.9-1-8.1-3c-2.1-1.9-3.3-4.2-3.5-7h34.6l.2-1.2c0-.4,0-.9,0-1.6,0-.7,0-1.3,0-1.8,0-7.9-2.2-14.2-6.5-18.8-4.3-4.6-10.4-6.9-18-6.9ZM246.6,95.6c.2-2.1,1.2-4,3-5.8,1.9-1.9,4.3-2.8,7.3-2.8s5.9.9,7.6,2.6c1.6,1.6,2.5,3.6,2.7,6h-20.6Z"/>
    <path d="M329.2,82.3c-4.3-4.6-10.4-6.9-18-6.9s-12.3,2.5-17.1,7.3c-4.8,4.8-7.2,11.1-7.2,18.7s2.5,14.5,7.4,19.2c4.9,4.8,11,7.2,18.1,7.2s10.7-1.5,14.6-4.4c3.9-2.9,6.6-6.7,7.9-11.3v-.5c.1,0-1-.3-1-.3-4.8-1.4-10.2-.5-14.8,2.6-1.7,1.2-4,1.8-6.7,1.8s-5.9-1-8.1-3c-2.1-1.9-3.3-4.2-3.5-7h34.6l.2-1.2c0-.4,0-.9,0-1.6,0-.7,0-1.3,0-1.8,0-7.9-2.2-14.2-6.5-18.8ZM301.1,95.6c.2-2.1,1.2-4,3-5.8s4.3-2.8,7.3-2.8,5.9.9,7.6,2.6c1.6,1.6,2.5,3.6,2.7,6h-20.6Z"/>
    <g class="st6">
      <circle class="st3" cx="115" cy="85.4" r="22.1"/>
    </g>
  </g>
  <path class="st4" d="M124.8,74c-18.3-3.3-24.5-7.7-34.5-12.7.1.3.3.6.4.9,7.2,14.6,21.7,24.4,38,25.8,6.3.5,11.9,2.2,17.5,5.9-1.6-6.8-7.9-17.5-21.4-20Z"/>
  <g>
    <path d="M274.9,63.7c-.9,0-1.9,0-2.8,0-.9,0-1.9-.2-2.9-.4v-16.4c.8-.1,1.6-.3,2.6-.3.9,0,1.8-.1,2.6-.1s2.1,0,3,.2,1.7.4,2.3.8c.7.4,1.2.9,1.5,1.5.4.6.5,1.4.5,2.3,0,1.4-.7,2.4-2,3.2,1.1.4,1.8,1,2.2,1.7.4.7.6,1.5.6,2.4,0,1.8-.6,3.1-1.9,4s-3.2,1.3-5.8,1.3ZM273,53.1h1.9c1.2,0,2-.2,2.5-.5.5-.3.8-.8.8-1.5s-.3-1.2-.8-1.4c-.5-.3-1.3-.4-2.3-.4s-.7,0-1.1,0c-.4,0-.7,0-1,0v3.7ZM273,56.1v4.4c.3,0,.6,0,.9,0s.7,0,1.1,0c1.1,0,2.1-.2,2.8-.5s1.1-.9,1.1-1.8-.3-1.3-.9-1.7c-.6-.3-1.4-.5-2.5-.5h-2.4Z"/>
    <path d="M290.8,46.3c2.5,0,4.5.4,5.8,1.3s2,2.3,2,4.4-.7,3.5-2.1,4.4c-1.4.9-3.3,1.4-5.9,1.4h-1.2v5.7h-3.8v-16.7c.8-.2,1.7-.3,2.6-.3.9,0,1.7,0,2.4,0ZM291,49.5c-.3,0-.6,0-.8,0-.3,0-.5,0-.7,0v4.9h1.2c1.3,0,2.3-.2,3-.5.7-.4,1-1,1-2s0-.9-.3-1.2-.4-.6-.7-.7c-.3-.2-.7-.3-1.2-.4-.5,0-1-.1-1.5-.1Z"/>
    <path d="M306,46.5c.3.5.6,1.2,1,2,.4.8.8,1.6,1.2,2.6.4.9.8,1.9,1.2,2.8.4,1,.8,1.9,1.2,2.7.4-.8.7-1.8,1.2-2.7.4-1,.8-1.9,1.2-2.8s.8-1.8,1.2-2.6c.4-.8.7-1.5,1-2h3.5c.2,1.1.3,2.4.5,3.8.1,1.4.3,2.8.4,4.4.1,1.5.2,3,.3,4.5,0,1.5.2,2.9.2,4.3h-3.7c0-1.6-.1-3.4-.2-5.4,0-1.9-.2-3.9-.4-5.9-.3.7-.6,1.4-1,2.3-.4.8-.7,1.7-1.1,2.5-.4.8-.7,1.6-1,2.4-.3.8-.6,1.4-.8,1.9h-2.7c-.2-.5-.5-1.2-.8-1.9-.3-.8-.7-1.6-1-2.4-.4-.8-.7-1.7-1.1-2.5-.4-.8-.7-1.6-1-2.3-.2,2-.3,3.9-.4,5.9,0,1.9-.1,3.7-.2,5.4h-3.7c0-1.3.1-2.8.2-4.3,0-1.5.2-3,.3-4.5.1-1.5.2-3,.4-4.4.1-1.4.3-2.7.5-3.8h3.6Z"/>
    <path d="M328,60.5c.5,0,1,0,1.3-.1.4,0,.6-.2.8-.4.2-.2.4-.3.4-.6,0-.2.1-.4.1-.7,0-.6-.3-1-.8-1.4-.5-.4-1.4-.8-2.7-1.2-.6-.2-1.1-.4-1.7-.7-.6-.3-1.1-.6-1.5-1-.4-.4-.8-.8-1.1-1.4-.3-.5-.4-1.2-.4-2s.1-1.5.4-2.1c.3-.6.7-1.2,1.2-1.6s1.2-.8,2-1c.8-.2,1.6-.4,2.6-.4s2.1.1,3,.4c.8.2,1.5.5,2.1.8l-1.1,3c-.5-.2-1-.5-1.6-.6-.6-.2-1.3-.3-2.1-.3s-1.6.1-2,.4c-.4.3-.6.6-.6,1.2s0,.6.2.8c.1.2.4.4.6.6.3.2.6.3.9.5s.7.3,1.2.4c.9.3,1.6.6,2.3,1,.7.3,1.2.7,1.6,1.1s.8.9,1,1.5c.2.6.3,1.3.3,2.1,0,1.6-.6,2.8-1.7,3.7s-2.8,1.3-5,1.3-1.4,0-2-.1c-.6,0-1.1-.2-1.6-.3-.5-.1-.9-.3-1.2-.4-.3-.1-.6-.3-.8-.4l1.1-3c.5.3,1.1.5,1.9.7.7.2,1.7.3,2.7.3Z"/>
  </g>
</svg>